<?xml version="1.0" encoding="utf-8"?>
<!-- Uploaded to: SVG Repo, www.svgrepo.com, Generator: SVG Repo Mixer Tools -->
<svg width="800px" height="800px" viewBox="0 0 1024 1024" class="icon"  version="1.1" xmlns="http://www.w3.org/2000/svg"><path d="M960 149.333333H64a42.666667 42.666667 0 0 0-42.666667 42.666667v768a42.666667 42.666667 0 0 0 42.666667 42.666667h896a42.666667 42.666667 0 0 0 42.666667-42.666667V192a42.666667 42.666667 0 0 0-42.666667-42.666667z" fill="#9ACCEF" /><path d="M256 21.333333h512v234.666667H256z" fill="#75B4DB" /><path d="M490.666667 234.666667h42.666666v768h-42.666666zM853.333333 618.666667h-170.666666a21.333333 21.333333 0 0 1 0-42.666667h170.666666a21.333333 21.333333 0 0 1 0 42.666667z" fill="#75B4DB" /><path d="M777.045333 23.338667a21.333333 21.333333 0 0 0-22.698666 2.944L512 228.224 269.653333 26.282667A21.333333 21.333333 0 0 0 234.666667 42.666667v384a21.333333 21.333333 0 0 0 33.173333 17.749333L512 281.642667l244.16 162.773333A21.376 21.376 0 0 0 789.333333 426.666667V42.666667a21.333333 21.333333 0 0 0-12.288-19.328z" fill="#BADEFC" /><path d="M394.666667 586.666667m-32 0a32 32 0 1 0 64 0 32 32 0 1 0-64 0Z" fill="#335262" /><path d="M394.666667 736m-32 0a32 32 0 1 0 64 0 32 32 0 1 0-64 0Z" fill="#335262" /><path d="M394.666667 885.333333m-32 0a32 32 0 1 0 64 0 32 32 0 1 0-64 0Z" fill="#335262" /></svg>