<?xml version="1.0" encoding="utf-8"?>
<!-- Uploaded to: SVG Repo, www.svgrepo.com, Generator: SVG Repo Mixer Tools -->
<svg width="800px" height="800px" viewBox="0 0 1024 1024" fill="#000000" class="icon"  version="1.1" xmlns="http://www.w3.org/2000/svg"><path d="M816.962 410.853l-18.4-318.526h-94.794l-17.641 349.146-289.492 67.628v74.737l-102.667-18.572-12.186-210.855h-69.284l-9.804 194.353-57.65-10.426v502.972h754.975v-649.79l-83.057 19.332zM802.461 564.921c-1.485 3.936-3.141 10.667-5.765 17.088l-8.18 23.371c-2.934 8.734-6.213 17.779-9.734 26.617-3.52 9.079-7.077 18.917-11.218 27.823-4.109 8.976-8.319 18.848-13.36 27.375-22.197 40.668-52.939 74.105-90.003 98.802 47.611-39.253 39.741-32.038 31.937-24.306-34.93 32.501-78.002 56.726-125.806 69.274 32.197-5.701-15.739 11.395-66.967 17.955 64.661-13.223 42.464-7.866 19.253-6.145 9.923 71.393 27.392 165.877 27.633 167.085l-16.743 3.279c-0.966-5.005-17.986-97.142 17.812-179.991l3.901-9.77c9.217-22.473 22.887-52.058 39.491-79.951 8.25-14.050 17.398-27.478 26.546-39.699l13.911-16.985 13.601-14.325c4.626-4.039 8.803-7.767 12.496-11.046 3.589-3.487 7.423-5.593 10.287-7.767l9.217-6.491-9.7 5.731c-3.038 1.933-7.077 3.798-10.943 7.008l-13.532 10.15-14.879 13.429-15.568 16.156c-10.183 11.668-20.644 24.578-30.171 38.18-50.477 71.661-87.276 156.72-104.566 248.662 55.616-165.744 53.543-161.635 51.715-157.734-2.85-7.571-4.722-16.326-5.217-25.449 0.417 8.499-2.033-0.58-3.276-10.315-1.385-9.529-2.174-20.531-2.174-31.717 0-0.16 0-0.321 0-0.48 0.345-27.092 5.498-52.906 14.643-76.742 3.066-9.018 9.072-21.307 16.045-33.218 6.732-12.014 15.534-23.301 24.372-34.175 9.459-10.667 19.814-20.644 30.724-29.689 27.71-21.923 61.051-38.032 97.462-45.887-48.787 16.37-36.636 10.674-23.379 7.292 16.505-4.782 35.511-7.693 55.142-8.031-4.811 0.366 6.615 0.747 16.73 1.747 10.012 0.863 19.814 4.281 27.065 6.317 7.249 1.967 13.36 5.143 17.156 6.697 3.936 1.83 6.076 3.107 6.076 3.107l-2.036 6.766zM170.071 342.986c8.18-3.348 14.947-8.527 18.848-15.5 5.315-8.18 4.971-9.872 8.285-16.535 1.809-5.89 4.79-10.959 8.694-15.158-2.723 4.353-2.445 2.351-0.858 1.936 2.763-2.277 11.012-1.415 17.812 0.621 13.981 4.177 25.166 8.907 25.166 8.907s-2.486-11.875-15.362-24.786c-6.151-6.241-13.979-10.814-22.752-12.99 4.766 1.424-2.103-1.302-10.527 0.148-9.558 1.331-17.773 6.247-23.385 13.322-5.869 7.081-10.988 17.845-13.005 29.668 2.386-10.298-0.272-1.324-1.274-1.045-0.966 2.208-2.348 4.109-2.969 5.040-0.863 0.483-2.036 2.243-5.109 2.002-3.673-0.073-7.179-0.671-10.482-1.724-12.75-4.18-23.762-9.633-23.762-9.633s1.622 12.117 14.395 25.58c3.418 3.279 7.354 6.939 13.463 9.286 3.68 1.659 7.977 2.626 12.502 2.626 3.698 0 7.244-0.645 10.533-1.831zM632.342 85.423c3.691 1.71 8.011 2.707 12.564 2.707 3.677 0 7.202-0.651 10.466-1.842 7.97-3.315 14.735-8.494 18.637-15.467 5.315-8.18 4.971-9.838 8.285-16.535 1.809-5.89 4.79-10.959 8.694-15.158-2.723 4.318-2.445 2.351-0.858 1.901 2.763-2.277 10.977-1.381 17.812 0.621 13.981 4.211 25.166 8.941 25.166 8.941s-2.486-11.909-15.362-24.786c-6.234-6.314-14.156-10.946-23.033-13.168 5.047 1.603-1.823-1.124-10.245 0.325-9.55 1.312-17.755 6.22-23.353 13.289-5.9 7.098-11.019 17.844-13.041 29.649 2.355-10.245-0.269-1.269-1.269-0.994-0.966 2.208-2.348 4.109-2.969 5.040-0.863 0.483-2.036 2.243-5.109 2.002-3.744-0.095-7.31-0.71-10.673-1.779-12.559-4.125-23.571-9.578-23.571-9.578s1.622 12.083 14.395 25.58c3.383 3.245 7.354 6.868 13.463 9.251z" /></svg>